<svg id="_icons_person-circle-outline" data-name="⚛️ icons/person-circle-outline" xmlns="http://www.w3.org/2000/svg" width="48" height="48" viewBox="0 0 48 48">
  <path id="Combined_Shape" data-name="Combined Shape" d="M19.229,39A19.491,19.491,0,0,1,5.627,5.814,19.36,19.36,0,0,1,19.507,0c.088,0,.176,0,.266,0a19.494,19.494,0,0,1,13.606,33.19A19.362,19.362,0,0,1,19.5,39C19.411,39,19.319,39,19.229,39Zm8.788-11.126a11.636,11.636,0,0,1,3.033,2.776.373.373,0,0,0,.281.149h.018a.373.373,0,0,0,.277-.121A16.491,16.491,0,0,0,19.5,3h-.043A16.489,16.489,0,0,0,7.378,30.681a.372.372,0,0,0,.272.119h.023a.37.37,0,0,0,.281-.149,11.6,11.6,0,0,1,3.033-2.774A15.908,15.908,0,0,1,19.5,25.5,15.91,15.91,0,0,1,28.017,27.877ZM13.147,15.822a6.378,6.378,0,1,1,12.71,0C25.58,19.5,22.734,22.5,19.5,22.5S13.419,19.5,13.147,15.822Z" transform="translate(4.498 4.498)" fill="#174a7c"/>
</svg>
